# XSI Wavefront OBJ Export v3.0
# File Created: Mon Aug 27 21:44:30 2007
# XSI Version: 6.0.2006.1218
o 6.0.2006.1218

# Hierarchy (from self to top father)
g cube

#begin 42 vertices
v 3.436312 0.000000 0.767333
v 3.701644 1.878295 0.767333
v 3.701644 1.878295 0.277909
v 3.116389 -2.264734 0.277909
v 3.116389 -2.264734 0.767333
v -3.682686 1.878295 0.277909
v -3.097431 -2.264734 0.277909
v -3.097431 -2.264734 0.767333
v -3.682686 1.878295 0.767333
v -3.417353 0.000000 0.767333
v 4.000000 1.860381 0.767333
v -4.000000 1.926644 0.767333
v 1.724681 5.421496 -2.812833
v 3.812195 5.127227 -2.812833
v 4.000000 0.000000 0.767333
v 3.272016 -2.789542 0.767333
v 3.272016 -2.789542 0.000000
v 4.000000 0.000000 0.000000
v 1.333333 4.000000 -4.000000
v -3.812195 5.127227 -2.812833
v -1.724681 5.421496 -2.812833
v -1.333333 4.000000 -4.000000
v -4.000000 4.000000 0.767333
v -4.000000 4.000000 0.000000
v -4.000000 0.000000 0.000000
v -4.000000 0.000000 0.767333
v 4.000000 0.000000 -4.000000
v 3.272016 -2.789542 -2.770177
v -4.000000 0.000000 -4.000000
v 4.000000 4.000000 0.767333
v 4.000000 4.000000 0.000000
v 4.000000 4.000000 -4.000000
v 3.812195 5.127227 0.000000
v -1.333333 4.000000 0.000000
v -3.272016 -2.789542 0.767333
v -3.272016 -2.789542 0.000000
v -3.272016 -2.789542 -2.770177
v -3.812195 5.127227 0.000000
v 1.724681 5.421496 0.000000
v 1.333333 4.000000 0.000000
v -4.000000 4.000000 -4.000000
v -1.724681 5.421496 0.000000
#end 42 vertices

#begin 148 normals
vn -0.990169 0.139874 -0.000000
vn -0.990169 0.139874 -0.000000
vn -0.990169 0.139874 -0.000000
vn -0.990169 0.139874 -0.000000
vn -0.990169 0.139874 -0.000000
vn 0.000000 0.000000 1.000000
vn 0.000000 0.000000 1.000000
vn 0.000000 0.000000 1.000000
vn 0.000000 0.000000 1.000000
vn 0.990169 0.139874 -0.000000
vn 0.990169 0.139874 -0.000000
vn 0.990169 0.139874 -0.000000
vn 0.990169 0.139874 -0.000000
vn 0.990169 0.139874 -0.000000
vn 0.000000 1.000000 -0.000000
vn 0.000000 1.000000 -0.000000
vn 0.000000 1.000000 -0.000000
vn 0.000000 1.000000 -0.000000
vn 0.000000 0.000000 1.000000
vn 0.000000 0.000000 1.000000
vn -0.000000 0.000000 1.000000
vn -0.000000 0.000000 1.000000
vn 0.000000 -1.000000 0.000000
vn 0.000000 -1.000000 0.000000
vn 0.000000 -1.000000 0.000000
vn 0.000000 -1.000000 0.000000
vn 0.991865 -0.127292 0.000000
vn 0.967594 -0.252512 0.000000
vn 0.967594 -0.252512 0.000000
vn 0.991865 -0.127292 0.000000
vn 0.000000 -0.206129 -0.978525
vn 0.022584 0.364869 -0.930785
vn 0.022584 0.364869 -0.930785
vn -0.022584 0.364869 -0.930785
vn -1.000000 0.000000 0.000000
vn -0.998489 0.054947 0.000000
vn -0.991865 -0.127292 0.000000
vn -0.991865 -0.127292 0.000000
vn -0.022584 0.364869 -0.930785
vn 0.000000 -0.206129 -0.978525
vn 0.000000 -0.403405 -0.915022
vn 0.000000 -0.403405 -0.915022
vn 1.000000 0.000000 0.000000
vn 0.991865 -0.127292 0.000000
vn 0.991865 -0.127292 0.000000
vn 0.998489 0.054947 0.000000
vn 0.000000 -0.206129 -0.978525
vn 0.000000 0.000000 1.000000
vn 0.000000 0.000000 1.000000
vn -0.964130 0.265431 0.000000
vn 0.000000 1.000000 0.000000
vn 0.000000 1.000000 0.000000
vn 0.000000 1.000000 0.000000
vn 0.000000 1.000000 0.000000
vn 0.000000 -1.000000 0.000000
vn 0.000000 -1.000000 0.000000
vn 0.000000 -0.206129 -0.978525
vn -0.964130 0.265431 0.000000
vn 0.000000 1.000000 0.000000
vn 0.000000 1.000000 0.000000
vn 0.000000 0.000000 1.000000
vn -0.000000 0.000000 1.000000
vn 0.998489 0.054947 0.000000
vn 0.991865 -0.127292 0.000000
vn 0.991865 -0.127292 0.000000
vn 0.996595 0.082452 0.000000
vn 0.996595 0.082452 0.000000
vn 0.998489 0.054947 0.000000
vn 0.986403 0.164343 0.000000
vn 0.986403 0.164343 0.000000
vn 0.000000 -1.000000 0.000000
vn 0.000000 -1.000000 0.000000
vn 0.000000 -1.000000 0.000000
vn 0.000000 -1.000000 0.000000
vn -0.139586 0.990210 0.000000
vn -0.099132 0.911175 -0.399917
vn -0.099132 0.911175 -0.399917
vn -0.139586 0.990210 0.000000
vn -0.967594 -0.252512 0.000000
vn -0.967594 -0.252512 0.000000
vn 0.000000 0.000000 1.000000
vn 0.000000 0.000000 1.000000
vn -0.996595 0.082452 0.000000
vn -0.998489 0.054947 0.000000
vn -0.000000 0.000000 1.000000
vn -0.000000 0.000000 1.000000
vn 0.000000 1.000000 0.000000
vn 0.000000 1.000000 -0.000000
vn 0.000000 1.000000 -0.000000
vn 0.000000 1.000000 0.000000
vn -0.000000 0.000000 1.000000
vn -0.000000 0.000000 1.000000
vn -0.000000 0.000000 1.000000
vn -0.991865 -0.127292 0.000000
vn 0.000000 0.000000 1.000000
vn 0.000000 0.000000 1.000000
vn 0.991865 -0.127292 0.000000
vn 0.967594 -0.252512 0.000000
vn 0.967594 -0.252512 0.000000
vn 0.991865 -0.127292 0.000000
vn -0.991865 -0.127292 0.000000
vn -0.000000 0.000000 1.000000
vn -0.000000 0.000000 1.000000
vn -0.991865 -0.127292 0.000000
vn 0.139586 0.990210 0.000000
vn 0.099132 0.911175 -0.399917
vn 0.099132 0.911175 -0.399917
vn 0.139586 0.990210 0.000000
vn -0.991865 -0.127292 0.000000
vn 0.000000 0.000000 1.000000
vn 0.000000 0.000000 1.000000
vn 0.022584 0.364869 -0.930785
vn 0.022584 0.364869 -0.930785
vn 0.099132 0.911175 -0.399917
vn -0.000000 0.000000 1.000000
vn -0.000000 0.000000 1.000000
vn -0.000000 0.000000 1.000000
vn 0.000000 0.000000 1.000000
vn -0.986403 0.164343 0.000000
vn -0.986403 0.164343 0.000000
vn -0.996595 0.082452 0.000000
vn -0.998489 0.054947 0.000000
vn 0.000000 0.000000 1.000000
vn 0.000000 0.000000 1.000000
vn 0.000000 0.000000 1.000000
vn 1.000000 0.000000 0.000000
vn -0.000000 0.000000 1.000000
vn -0.000000 0.000000 1.000000
vn -0.000000 0.000000 1.000000
vn -0.000000 0.000000 1.000000
vn -0.964130 0.265431 0.000000
vn -0.964130 0.265431 0.000000
vn -1.000000 0.000000 0.000000
vn -0.000000 0.000000 1.000000
vn 0.964130 0.265431 0.000000
vn 0.964130 0.265431 0.000000
vn 0.964130 0.265431 0.000000
vn 0.964130 0.265431 0.000000
vn -0.991865 -0.127292 0.000000
vn -0.991865 -0.127292 0.000000
vn -0.967594 -0.252512 0.000000
vn -0.967594 -0.252512 0.000000
vn -0.099132 0.911175 -0.399917
vn -0.099132 0.911175 -0.399917
vn -0.022584 0.364869 -0.930785
vn -0.022584 0.364869 -0.930785
vn 0.099132 0.911175 -0.399917
vn 0.000000 0.000000 1.000000
#end 148 vertex normals

#begin 34 faces
f 1//1 2//2 3//3 4//4 5//5 
f 4//6 3//7 6//8 7//9 
f 8//10 7//11 6//12 9//13 10//14 
f 5//15 4//16 7//17 8//18 
f 9//23 6//24 3//25 2//26 
f 15//27 16//28 17//29 18//30 
f 29//47 41//39 22//34 19//33 32//32 27//31 
f 23//35 24//36 25//37 26//38 12//133 
f 27//57 28//42 37//41 29//40 
f 30//43 11//126 15//44 18//45 31//46 
f 39//132 13//131 19//58 40//50 
f 23//60 30//59 31//54 40//53 34//52 24//51 
f 16//74 35//73 36//72 37//71 28//56 17//55 
f 14//70 33//69 31//68 32//67 
f 31//63 18//64 27//65 32//66 
f 24//84 41//83 29//101 25//94 
f 1//110 15//111 11//62 2//117 
f 42//75 21//76 20//77 38//78 
f 8//82 35//81 16//20 5//19 
f 33//116 39//115 40//86 31//85 
f 40//87 19//88 22//89 34//90 
f 9//91 12//134 26//95 10//96 
f 18//97 17//98 28//99 27//100 
f 11//103 30//102 23//93 12//92 9//22 2//21 
f 33//105 14//106 13//107 39//108 
f 13//147 14//114 32//113 19//112 
f 5//48 16//125 15//124 1//123 
f 38//119 20//120 41//121 24//122 
f 25//109 29//104 37//80 36//79 
f 42//127 38//128 24//129 34//130 
f 10//148 26//49 35//61 8//118 
f 21//135 42//136 34//137 22//138 
f 26//139 25//140 36//141 35//142 
f 20//143 21//144 22//145 41//146 
#end 34 faces

# Hierarchy (from self to top father)
g cube1

#begin 8 vertices
v -3.536531 2.210669 0.823480
v -2.583531 2.210669 0.823480
v -3.536531 3.163669 0.823480
v -2.583531 3.163669 0.823480
v -3.536531 2.210669 1.110709
v -2.583531 2.210669 1.110709
v -3.536531 3.163669 1.110709
v -2.583531 3.163669 1.110709
#end 8 vertices

#begin 24 normals
vn 0.000000 -0.000000 -1.000000
vn 0.000000 -0.000000 -1.000000
vn 0.000000 -0.000000 -1.000000
vn 0.000000 -0.000000 -1.000000
vn -0.000000 -1.000000 0.000000
vn -0.000000 -1.000000 0.000000
vn -0.000000 -1.000000 0.000000
vn -0.000000 -1.000000 0.000000
vn -1.000000 0.000000 -0.000000
vn -1.000000 0.000000 -0.000000
vn -1.000000 0.000000 -0.000000
vn -1.000000 0.000000 -0.000000
vn 1.000000 0.000000 0.000000
vn 1.000000 0.000000 0.000000
vn 1.000000 0.000000 0.000000
vn 1.000000 0.000000 0.000000
vn 0.000000 1.000000 0.000000
vn 0.000000 1.000000 0.000000
vn 0.000000 1.000000 0.000000
vn 0.000000 1.000000 0.000000
vn 0.000000 0.000000 1.000000
vn 0.000000 0.000000 1.000000
vn 0.000000 0.000000 1.000000
vn 0.000000 0.000000 1.000000
#end 24 vertex normals

#begin 6 faces
f 43//149 45//150 46//151 44//152 
f 43//153 44//154 48//155 47//156 
f 43//157 47//158 49//159 45//160 
f 44//161 46//162 50//163 48//164 
f 45//165 49//166 50//167 46//168 
f 47//169 48//170 50//171 49//172 
#end 6 faces

# Hierarchy (from self to top father)
g cube2

#begin 8 vertices
v 2.452031 2.210669 0.823480
v 3.405031 2.210669 0.823480
v 2.452031 3.163669 0.823480
v 3.405031 3.163669 0.823480
v 2.452031 2.210669 1.110709
v 3.405031 2.210669 1.110709
v 2.452031 3.163669 1.110709
v 3.405031 3.163669 1.110709
#end 8 vertices

#begin 24 normals
vn 0.000000 -0.000000 -1.000000
vn 0.000000 -0.000000 -1.000000
vn 0.000000 -0.000000 -1.000000
vn 0.000000 -0.000000 -1.000000
vn -0.000000 -1.000000 0.000000
vn -0.000000 -1.000000 0.000000
vn -0.000000 -1.000000 0.000000
vn -0.000000 -1.000000 0.000000
vn -1.000000 0.000000 -0.000000
vn -1.000000 0.000000 -0.000000
vn -1.000000 0.000000 -0.000000
vn -1.000000 0.000000 -0.000000
vn 1.000000 0.000000 0.000000
vn 1.000000 0.000000 0.000000
vn 1.000000 0.000000 0.000000
vn 1.000000 0.000000 0.000000
vn 0.000000 1.000000 0.000000
vn 0.000000 1.000000 0.000000
vn 0.000000 1.000000 0.000000
vn 0.000000 1.000000 0.000000
vn 0.000000 0.000000 1.000000
vn 0.000000 0.000000 1.000000
vn 0.000000 0.000000 1.000000
vn 0.000000 0.000000 1.000000
#end 24 vertex normals

#begin 6 faces
f 51//173 53//174 54//175 52//176 
f 51//177 52//178 56//179 55//180 
f 51//181 55//182 57//183 53//184 
f 52//185 54//186 58//187 56//188 
f 53//189 57//190 58//191 54//192 
f 55//193 56//194 58//195 57//196 
#end 6 faces

# Hierarchy (from self to top father)
g cube3

#begin 8 vertices
v -3.291417 0.877562 0.376381
v -2.338417 0.877562 0.376381
v -3.291417 1.830562 0.376381
v -2.338417 1.830562 0.376381
v -3.291417 0.877562 0.663610
v -2.338417 0.877562 0.663610
v -3.291417 1.830562 0.663610
v -2.338417 1.830562 0.663610
#end 8 vertices

#begin 24 normals
vn 0.000000 -0.000000 -1.000000
vn 0.000000 -0.000000 -1.000000
vn 0.000000 -0.000000 -1.000000
vn 0.000000 -0.000000 -1.000000
vn -0.000000 -1.000000 0.000000
vn -0.000000 -1.000000 0.000000
vn -0.000000 -1.000000 0.000000
vn -0.000000 -1.000000 0.000000
vn -1.000000 0.000000 -0.000000
vn -1.000000 0.000000 -0.000000
vn -1.000000 0.000000 -0.000000
vn -1.000000 0.000000 -0.000000
vn 1.000000 0.000000 0.000000
vn 1.000000 0.000000 0.000000
vn 1.000000 0.000000 0.000000
vn 1.000000 0.000000 0.000000
vn 0.000000 1.000000 0.000000
vn 0.000000 1.000000 0.000000
vn 0.000000 1.000000 0.000000
vn 0.000000 1.000000 0.000000
vn 0.000000 0.000000 1.000000
vn 0.000000 0.000000 1.000000
vn 0.000000 0.000000 1.000000
vn 0.000000 0.000000 1.000000
#end 24 vertex normals

#begin 6 faces
f 59//197 61//198 62//199 60//200 
f 59//201 60//202 64//203 63//204 
f 59//205 63//206 65//207 61//208 
f 60//209 62//210 66//211 64//212 
f 61//213 65//214 66//215 62//216 
f 63//217 64//218 66//219 65//220 
#end 6 faces
